<svg width="35" height="40" viewBox="0 0 35 40" fill="none" xmlns="http://www.w3.org/2000/svg">
<path d="M23.369 20.0865C29.9956 21.7802 35 29.4923 35 38.75H6.25C6.25 29.4923 11.2544 21.7802 17.881 20.0865C13.6573 18.8715 10.5625 14.9213 10.5625 10.2358C10.5625 4.58275 15.0676 0 20.625 0C26.1824 0 30.6875 4.58275 30.6875 10.2358C30.6875 14.9213 27.5927 18.8715 23.369 20.0865Z" fill="#C4C4C4"/>
<path d="M17.119 21.3365C23.7456 23.0302 28.75 30.7423 28.75 40H0C0 30.7423 5.00441 23.0302 11.631 21.3365C7.40733 20.1215 4.3125 16.1713 4.3125 11.4858C4.3125 5.83275 8.81763 1.25 14.375 1.25C19.9324 1.25 24.4375 5.83275 24.4375 11.4858C24.4375 16.1713 21.3427 20.1215 17.119 21.3365H17.119Z" fill="#75E7F8"/>
</svg>
