<svg width="30" height="40" viewBox="0 0 30 40" fill="none" xmlns="http://www.w3.org/2000/svg">
<path d="M17.8633 19.4778C24.778 21.1202 30 28.5986 30 37.5758H0C0 28.5986 5.222 21.1202 12.1367 19.4778C7.72939 18.2996 4.5 14.4691 4.5 9.92567C4.5 4.44387 9.20101 0 15 0C20.799 0 25.5 4.44387 25.5 9.92567C25.5 14.4691 22.2706 18.2996 17.8633 19.4778Z" fill="#C4C4C4"/>
<g filter="url(#filter0_d)">
<path d="M15.0384 20.7521C15.0384 20.0414 15.151 19.4174 15.3764 18.8801C15.619 18.3428 15.9137 17.8834 16.2604 17.5021C16.607 17.1208 17.0577 16.6874 17.6124 16.2021C18.3577 15.5434 18.9037 14.9714 19.2504 14.4861C19.6144 13.9834 19.7964 13.3768 19.7964 12.6661C19.7964 11.7128 19.4237 10.9501 18.6784 10.3781C17.933 9.78876 16.9104 9.4941 15.6104 9.4941C13.461 9.4941 11.8057 10.1961 10.6444 11.6001L9.26636 10.5601C10.7397 8.75743 12.8977 7.8561 15.7404 7.8561C17.5604 7.8561 19.0077 8.26343 20.0824 9.0781C21.1744 9.89276 21.7204 10.9934 21.7204 12.3801C21.7204 13.0908 21.599 13.7234 21.3564 14.2781C21.131 14.8154 20.845 15.2748 20.4984 15.6561C20.169 16.0374 19.727 16.4794 19.1724 16.9821C18.427 17.6581 17.8724 18.2648 17.5084 18.8021C17.1444 19.3221 16.9624 19.9721 16.9624 20.7521H15.0384ZM16.0004 26.3421C15.619 26.3421 15.2984 26.2121 15.0384 25.9521C14.7784 25.6748 14.6484 25.3541 14.6484 24.9901C14.6484 24.6088 14.7784 24.2968 15.0384 24.0541C15.2984 23.7941 15.619 23.6641 16.0004 23.6641C16.399 23.6641 16.7284 23.7941 16.9884 24.0541C17.2484 24.2968 17.3784 24.6088 17.3784 24.9901C17.3784 25.3541 17.2397 25.6748 16.9624 25.9521C16.7024 26.2121 16.3817 26.3421 16.0004 26.3421Z" fill="#EB8686"/>
<path d="M15.0384 20.7521H14.0384V21.7521H15.0384V20.7521ZM15.3764 18.8801L14.465 18.4685L14.4594 18.4809L14.4542 18.4934L15.3764 18.8801ZM16.2604 17.5021L15.5204 16.8294L15.5204 16.8294L16.2604 17.5021ZM17.6124 16.2021L18.2709 16.9547L18.2746 16.9514L17.6124 16.2021ZM19.2504 14.4861L18.4404 13.8996L18.4366 13.9049L19.2504 14.4861ZM18.6784 10.3781L18.0581 11.1625L18.0638 11.167L18.0695 11.1714L18.6784 10.3781ZM10.6444 11.6001L10.042 12.3983L10.8053 12.9744L11.4149 12.2375L10.6444 11.6001ZM9.26636 10.5601L8.49207 9.92726L7.83427 10.7321L8.66395 11.3583L9.26636 10.5601ZM20.0824 9.0781L19.4782 9.87502L19.4844 9.87962L20.0824 9.0781ZM21.3564 14.2781L20.4402 13.8773L20.4371 13.8843L20.4342 13.8914L21.3564 14.2781ZM20.4984 15.6561L19.7584 14.9834L19.7499 14.9928L19.7415 15.0025L20.4984 15.6561ZM19.1724 16.9821L18.5008 16.2411L18.5005 16.2414L19.1724 16.9821ZM17.5084 18.8021L18.3276 19.3756L18.332 19.3693L18.3363 19.3629L17.5084 18.8021ZM16.9624 20.7521V21.7521H17.9624V20.7521H16.9624ZM15.0384 25.9521L14.3088 26.636L14.3199 26.6478L14.3313 26.6592L15.0384 25.9521ZM15.0384 24.0541L15.7207 24.7852L15.7333 24.7734L15.7455 24.7612L15.0384 24.0541ZM16.9884 24.0541L16.2813 24.7612L16.2934 24.7734L16.306 24.7852L16.9884 24.0541ZM16.9624 25.9521L17.6695 26.6592L17.6695 26.6592L16.9624 25.9521ZM16.0384 20.7521C16.0384 20.1458 16.1345 19.658 16.2986 19.2668L14.4542 18.4934C14.1675 19.1769 14.0384 19.937 14.0384 20.7521H16.0384ZM16.2877 19.2917C16.4934 18.8363 16.7334 18.4683 17.0003 18.1748L15.5204 16.8294C15.094 17.2985 14.7447 17.8492 14.465 18.4685L16.2877 19.2917ZM17.0003 18.1748C17.3131 17.8307 17.7338 17.4246 18.2709 16.9547L16.9539 15.4495C16.3816 15.9502 15.901 16.4108 15.5204 16.8294L17.0003 18.1748ZM18.2746 16.9514C19.0444 16.2711 19.654 15.6415 20.0641 15.0673L18.4366 13.9049C18.1534 14.3014 17.671 14.8157 16.9502 15.4528L18.2746 16.9514ZM20.0603 15.0726C20.5652 14.3753 20.7964 13.5557 20.7964 12.6661H18.7964C18.7964 13.1979 18.6635 13.5916 18.4404 13.8996L20.0603 15.0726ZM20.7964 12.6661C20.7964 11.4073 20.2834 10.3493 19.2872 9.58479L18.0695 11.1714C18.564 11.5509 18.7964 12.0183 18.7964 12.6661H20.7964ZM19.2986 9.59368C18.3216 8.82115 17.0534 8.4941 15.6104 8.4941V10.4941C16.7673 10.4941 17.5445 10.7564 18.0581 11.1625L19.2986 9.59368ZM15.6104 8.4941C13.2224 8.4941 11.26 9.28686 9.8738 10.9627L11.4149 12.2375C12.3514 11.1053 13.6996 10.4941 15.6104 10.4941V8.4941ZM11.2468 10.8019L9.86877 9.76191L8.66395 11.3583L10.042 12.3983L11.2468 10.8019ZM10.0406 11.1929C11.2822 9.67381 13.1248 8.8561 15.7404 8.8561V6.8561C12.6706 6.8561 10.1972 7.84105 8.49207 9.92726L10.0406 11.1929ZM15.7404 8.8561C17.4177 8.8561 18.6293 9.23141 19.4783 9.875L20.6865 8.28119C19.3861 7.29545 17.703 6.8561 15.7404 6.8561V8.8561ZM19.4844 9.87962C20.3181 10.5016 20.7204 11.3024 20.7204 12.3801H22.7204C22.7204 10.6844 22.0306 9.28392 20.6803 8.27657L19.4844 9.87962ZM20.7204 12.3801C20.7204 12.9765 20.6188 13.469 20.4402 13.8773L22.2725 14.6789C22.5792 13.9778 22.7204 13.205 22.7204 12.3801H20.7204ZM20.4342 13.8914C20.2472 14.3373 20.0192 14.6966 19.7584 14.9834L21.2383 16.3288C21.6709 15.853 22.0149 15.2936 22.2786 14.6648L20.4342 13.8914ZM19.7415 15.0025C19.4482 15.3421 19.0383 15.754 18.5008 16.2411L19.8439 17.7231C20.4158 17.2048 20.8898 16.7328 21.2552 16.3097L19.7415 15.0025ZM18.5005 16.2414C17.7247 16.945 17.1065 17.6123 16.6804 18.2412L18.3363 19.3629C18.6382 18.9172 19.1293 18.3712 19.8442 17.7228L18.5005 16.2414ZM16.6891 18.2286C16.1829 18.9519 15.9624 19.8145 15.9624 20.7521H17.9624C17.9624 20.1297 18.1059 19.6923 18.3276 19.3756L16.6891 18.2286ZM16.9624 19.7521H15.0384V21.7521H16.9624V19.7521ZM16.0004 25.3421C15.8733 25.3421 15.8103 25.3098 15.7455 25.245L14.3313 26.6592C14.7864 27.1144 15.3648 27.3421 16.0004 27.3421V25.3421ZM15.7679 25.2682C15.6732 25.1671 15.6484 25.0879 15.6484 24.9901H13.6484C13.6484 25.6203 13.8836 26.1824 14.3088 26.636L15.7679 25.2682ZM15.6484 24.9901C15.6484 24.8635 15.6791 24.8239 15.7207 24.7852L14.356 23.323C13.8776 23.7696 13.6484 24.354 13.6484 24.9901H15.6484ZM15.7455 24.7612C15.8103 24.6964 15.8733 24.6641 16.0004 24.6641V22.6641C15.3648 22.6641 14.7864 22.8918 14.3313 23.347L15.7455 24.7612ZM16.0004 24.6641C16.1585 24.6641 16.2255 24.7055 16.2813 24.7612L17.6955 23.347C17.2312 22.8827 16.6396 22.6641 16.0004 22.6641V24.6641ZM16.306 24.7852C16.3476 24.8239 16.3784 24.8635 16.3784 24.9901H18.3784C18.3784 24.354 18.1491 23.7696 17.6707 23.323L16.306 24.7852ZM16.3784 24.9901C16.3784 25.067 16.3611 25.1391 16.2553 25.245L17.6695 26.6592C18.1183 26.2104 18.3784 25.6412 18.3784 24.9901H16.3784ZM16.2553 25.245C16.1904 25.3098 16.1275 25.3421 16.0004 25.3421V27.3421C16.6359 27.3421 17.2143 27.1144 17.6695 26.6592L16.2553 25.245Z" fill="#0395D0"/>
</g>
<defs>
<filter id="filter0_d" x="3.83423" y="6.85608" width="22.8861" height="28.486" filterUnits="userSpaceOnUse" color-interpolation-filters="sRGB">
<feFlood flood-opacity="0" result="BackgroundImageFix"/>
<feColorMatrix in="SourceAlpha" type="matrix" values="0 0 0 0 0 0 0 0 0 0 0 0 0 0 0 0 0 0 127 0"/>
<feOffset dy="4"/>
<feGaussianBlur stdDeviation="2"/>
<feColorMatrix type="matrix" values="0 0 0 0 0 0 0 0 0 0 0 0 0 0 0 0 0 0 0.25 0"/>
<feBlend mode="normal" in2="BackgroundImageFix" result="effect1_dropShadow"/>
<feBlend mode="normal" in="SourceGraphic" in2="effect1_dropShadow" result="shape"/>
</filter>
</defs>
</svg>
