<svg width="30" height="30" viewBox="0 0 30 30" fill="none" xmlns="http://www.w3.org/2000/svg">
<g clip-path="url(#clip0)">
<path d="M27.7329 0.945451L0.760597 12.3022C-0.123645 12.6745 -0.270312 13.866 0.497264 14.4416L5.49959 18.1933L28.1578 1.57737C28.4589 1.27626 28.1253 0.780199 27.7329 0.945451Z" fill="#75E7F8"/>
<path d="M29.3814 2.55041L29.1432 2.72506L10.795 21.0733L20.2044 27.3462C20.8862 27.8007 21.8134 27.4825 22.0725 26.7051L29.9789 2.98597C30.0985 2.62718 29.6864 2.32678 29.3814 2.55041Z" fill="#75E7F8"/>
<path d="M7.26465 29.0874L13.0748 24.4059L9.96616 22.3336L7.26465 29.0874Z" fill="#75E7F8"/>
<path d="M9.07753 20.6576C9.07763 20.6575 9.07773 20.6574 9.07783 20.6573L19.4235 10.3116C19.586 10.1491 19.3672 9.89414 19.1819 10.03L6.24854 19.5143V27.5663L8.91086 20.9105C8.95005 20.8126 9.00753 20.7277 9.07753 20.6576Z" fill="#75E7F8"/>
</g>
<defs>
<clipPath id="clip0">
<rect width="30" height="30" fill="white"/>
</clipPath>
</defs>
</svg>
